ISO-10303-21;
HEADER;
/* Generated by software containing ST-Developer
 * from STEP Tools, Inc. (www.steptools.com) 
 */
/* OPTION: using custom renumber hook */

FILE_DESCRIPTION(
/* description */ ('STEP AP242 Edition 2',
'CAx-IF Rec.Pracs.---Representation and Presentation of Product Manufa
cturing Information (PMI)---4.0---2014-10-13',
'CAx-IF Rec.Pracs.---3D Tessellated Geometry---0.4---2014-09-14','2;1',
'CAx-IF Rec.Pracs.---User Defined Attributes---1.5---2016-08-15'),
/* implementation_level */ '2;1');

FILE_NAME(
/* name */ '6973e9cf9878acc3ec445239',
/* time_stamp */ '2026-01-23T21:36:16Z',
/* author */ (''),
/* organization */ (''),
/* preprocessor_version */ 'ST-DEVELOPER v20',
/* originating_system */ 'ONSHAPE BY PTC INC, 1.209',
/* authorisation */ '  ');

FILE_SCHEMA (('AP242_MANAGED_MODEL_BASED_3D_ENGINEERING_MIM_LF { 1 0 10303 442 3 1 4 }'));
ENDSEC;

DATA;
#10=CIRCLE('',#418,0.0004);
#11=CIRCLE('',#419,0.0004);
#12=CIRCLE('',#431,0.0004);
#13=CIRCLE('',#432,0.0004);
#14=CYLINDRICAL_SURFACE('',#417,0.0004);
#15=CYLINDRICAL_SURFACE('',#430,0.0004);
#16=SHAPE_REPRESENTATION_RELATIONSHIP('','',#404,#19);
#17=SHAPE_REPRESENTATION_RELATIONSHIP('','',#405,#20);
#18=SHAPE_REPRESENTATION_RELATIONSHIP('','',#406,#21);
#19=ADVANCED_BREP_SHAPE_REPRESENTATION('',(#398),#646);
#20=ADVANCED_BREP_SHAPE_REPRESENTATION('',(#399),#647);
#21=ADVANCED_BREP_SHAPE_REPRESENTATION('',(#400),#648);
#22=ORIENTED_EDGE('',*,*,#118,.F.);
#23=ORIENTED_EDGE('',*,*,#119,.F.);
#24=ORIENTED_EDGE('',*,*,#120,.T.);
#25=ORIENTED_EDGE('',*,*,#121,.T.);
#26=ORIENTED_EDGE('',*,*,#122,.T.);
#27=ORIENTED_EDGE('',*,*,#123,.F.);
#28=ORIENTED_EDGE('',*,*,#124,.F.);
#29=ORIENTED_EDGE('',*,*,#119,.T.);
#30=ORIENTED_EDGE('',*,*,#125,.T.);
#31=ORIENTED_EDGE('',*,*,#126,.F.);
#32=ORIENTED_EDGE('',*,*,#127,.F.);
#33=ORIENTED_EDGE('',*,*,#123,.T.);
#34=ORIENTED_EDGE('',*,*,#128,.F.);
#35=ORIENTED_EDGE('',*,*,#121,.F.);
#36=ORIENTED_EDGE('',*,*,#129,.T.);
#37=ORIENTED_EDGE('',*,*,#126,.T.);
#38=ORIENTED_EDGE('',*,*,#120,.F.);
#39=ORIENTED_EDGE('',*,*,#124,.T.);
#40=ORIENTED_EDGE('',*,*,#127,.T.);
#41=ORIENTED_EDGE('',*,*,#129,.F.);
#42=ORIENTED_EDGE('',*,*,#118,.T.);
#43=ORIENTED_EDGE('',*,*,#128,.T.);
#44=ORIENTED_EDGE('',*,*,#125,.F.);
#45=ORIENTED_EDGE('',*,*,#122,.F.);
#46=ORIENTED_EDGE('',*,*,#130,.F.);
#47=ORIENTED_EDGE('',*,*,#131,.F.);
#48=ORIENTED_EDGE('',*,*,#132,.T.);
#49=ORIENTED_EDGE('',*,*,#133,.T.);
#50=ORIENTED_EDGE('',*,*,#134,.F.);
#51=ORIENTED_EDGE('',*,*,#135,.F.);
#52=ORIENTED_EDGE('',*,*,#136,.T.);
#53=ORIENTED_EDGE('',*,*,#131,.T.);
#54=ORIENTED_EDGE('',*,*,#137,.F.);
#55=ORIENTED_EDGE('',*,*,#138,.F.);
#56=ORIENTED_EDGE('',*,*,#139,.T.);
#57=ORIENTED_EDGE('',*,*,#135,.T.);
#58=ORIENTED_EDGE('',*,*,#140,.F.);
#59=ORIENTED_EDGE('',*,*,#141,.F.);
#60=ORIENTED_EDGE('',*,*,#142,.T.);
#61=ORIENTED_EDGE('',*,*,#138,.T.);
#62=ORIENTED_EDGE('',*,*,#143,.F.);
#63=ORIENTED_EDGE('',*,*,#144,.F.);
#64=ORIENTED_EDGE('',*,*,#145,.T.);
#65=ORIENTED_EDGE('',*,*,#141,.T.);
#66=ORIENTED_EDGE('',*,*,#146,.F.);
#67=ORIENTED_EDGE('',*,*,#133,.F.);
#68=ORIENTED_EDGE('',*,*,#147,.T.);
#69=ORIENTED_EDGE('',*,*,#144,.T.);
#70=ORIENTED_EDGE('',*,*,#132,.F.);
#71=ORIENTED_EDGE('',*,*,#136,.F.);
#72=ORIENTED_EDGE('',*,*,#139,.F.);
#73=ORIENTED_EDGE('',*,*,#142,.F.);
#74=ORIENTED_EDGE('',*,*,#145,.F.);
#75=ORIENTED_EDGE('',*,*,#147,.F.);
#76=ORIENTED_EDGE('',*,*,#130,.T.);
#77=ORIENTED_EDGE('',*,*,#146,.T.);
#78=ORIENTED_EDGE('',*,*,#143,.T.);
#79=ORIENTED_EDGE('',*,*,#140,.T.);
#80=ORIENTED_EDGE('',*,*,#137,.T.);
#81=ORIENTED_EDGE('',*,*,#134,.T.);
#82=ORIENTED_EDGE('',*,*,#148,.T.);
#83=ORIENTED_EDGE('',*,*,#149,.F.);
#84=ORIENTED_EDGE('',*,*,#150,.F.);
#85=ORIENTED_EDGE('',*,*,#151,.T.);
#86=ORIENTED_EDGE('',*,*,#152,.T.);
#87=ORIENTED_EDGE('',*,*,#153,.F.);
#88=ORIENTED_EDGE('',*,*,#154,.F.);
#89=ORIENTED_EDGE('',*,*,#149,.T.);
#90=ORIENTED_EDGE('',*,*,#155,.T.);
#91=ORIENTED_EDGE('',*,*,#156,.F.);
#92=ORIENTED_EDGE('',*,*,#157,.F.);
#93=ORIENTED_EDGE('',*,*,#153,.T.);
#94=ORIENTED_EDGE('',*,*,#158,.T.);
#95=ORIENTED_EDGE('',*,*,#159,.F.);
#96=ORIENTED_EDGE('',*,*,#160,.F.);
#97=ORIENTED_EDGE('',*,*,#156,.T.);
#98=ORIENTED_EDGE('',*,*,#161,.T.);
#99=ORIENTED_EDGE('',*,*,#162,.F.);
#100=ORIENTED_EDGE('',*,*,#163,.F.);
#101=ORIENTED_EDGE('',*,*,#159,.T.);
#102=ORIENTED_EDGE('',*,*,#164,.T.);
#103=ORIENTED_EDGE('',*,*,#151,.F.);
#104=ORIENTED_EDGE('',*,*,#165,.F.);
#105=ORIENTED_EDGE('',*,*,#162,.T.);
#106=ORIENTED_EDGE('',*,*,#150,.T.);
#107=ORIENTED_EDGE('',*,*,#154,.T.);
#108=ORIENTED_EDGE('',*,*,#157,.T.);
#109=ORIENTED_EDGE('',*,*,#160,.T.);
#110=ORIENTED_EDGE('',*,*,#163,.T.);
#111=ORIENTED_EDGE('',*,*,#165,.T.);
#112=ORIENTED_EDGE('',*,*,#148,.F.);
#113=ORIENTED_EDGE('',*,*,#164,.F.);
#114=ORIENTED_EDGE('',*,*,#161,.F.);
#115=ORIENTED_EDGE('',*,*,#158,.F.);
#116=ORIENTED_EDGE('',*,*,#155,.F.);
#117=ORIENTED_EDGE('',*,*,#152,.F.);
#118=EDGE_CURVE('',#166,#167,#198,.T.);
#119=EDGE_CURVE('',#168,#166,#199,.T.);
#120=EDGE_CURVE('',#168,#169,#200,.T.);
#121=EDGE_CURVE('',#169,#167,#201,.T.);
#122=EDGE_CURVE('',#166,#170,#202,.T.);
#123=EDGE_CURVE('',#171,#170,#203,.T.);
#124=EDGE_CURVE('',#168,#171,#204,.T.);
#125=EDGE_CURVE('',#170,#172,#205,.T.);
#126=EDGE_CURVE('',#173,#172,#206,.T.);
#127=EDGE_CURVE('',#171,#173,#207,.T.);
#128=EDGE_CURVE('',#167,#172,#208,.T.);
#129=EDGE_CURVE('',#169,#173,#209,.T.);
#130=EDGE_CURVE('',#174,#175,#210,.T.);
#131=EDGE_CURVE('',#176,#174,#211,.T.);
#132=EDGE_CURVE('',#176,#177,#212,.T.);
#133=EDGE_CURVE('',#177,#175,#213,.T.);
#134=EDGE_CURVE('',#178,#174,#214,.T.);
#135=EDGE_CURVE('',#179,#178,#215,.T.);
#136=EDGE_CURVE('',#179,#176,#216,.T.);
#137=EDGE_CURVE('',#180,#178,#10,.T.);
#138=EDGE_CURVE('',#181,#180,#217,.T.);
#139=EDGE_CURVE('',#181,#179,#11,.T.);
#140=EDGE_CURVE('',#182,#180,#218,.T.);
#141=EDGE_CURVE('',#183,#182,#219,.T.);
#142=EDGE_CURVE('',#183,#181,#220,.T.);
#143=EDGE_CURVE('',#184,#182,#221,.T.);
#144=EDGE_CURVE('',#185,#184,#222,.T.);
#145=EDGE_CURVE('',#185,#183,#223,.T.);
#146=EDGE_CURVE('',#175,#184,#224,.T.);
#147=EDGE_CURVE('',#177,#185,#225,.T.);
#148=EDGE_CURVE('',#186,#187,#226,.T.);
#149=EDGE_CURVE('',#188,#187,#227,.T.);
#150=EDGE_CURVE('',#189,#188,#228,.T.);
#151=EDGE_CURVE('',#189,#186,#229,.T.);
#152=EDGE_CURVE('',#187,#190,#230,.T.);
#153=EDGE_CURVE('',#191,#190,#231,.T.);
#154=EDGE_CURVE('',#188,#191,#232,.T.);
#155=EDGE_CURVE('',#190,#192,#233,.T.);
#156=EDGE_CURVE('',#193,#192,#234,.T.);
#157=EDGE_CURVE('',#191,#193,#235,.T.);
#158=EDGE_CURVE('',#192,#194,#236,.T.);
#159=EDGE_CURVE('',#195,#194,#237,.T.);
#160=EDGE_CURVE('',#193,#195,#238,.T.);
#161=EDGE_CURVE('',#194,#196,#12,.T.);
#162=EDGE_CURVE('',#197,#196,#239,.T.);
#163=EDGE_CURVE('',#195,#197,#13,.T.);
#164=EDGE_CURVE('',#196,#186,#240,.T.);
#165=EDGE_CURVE('',#197,#189,#241,.T.);
#166=VERTEX_POINT('',#541);
#167=VERTEX_POINT('',#542);
#168=VERTEX_POINT('',#544);
#169=VERTEX_POINT('',#546);
#170=VERTEX_POINT('',#550);
#171=VERTEX_POINT('',#552);
#172=VERTEX_POINT('',#556);
#173=VERTEX_POINT('',#558);
#174=VERTEX_POINT('',#568);
#175=VERTEX_POINT('',#569);
#176=VERTEX_POINT('',#571);
#177=VERTEX_POINT('',#573);
#178=VERTEX_POINT('',#577);
#179=VERTEX_POINT('',#579);
#180=VERTEX_POINT('',#583);
#181=VERTEX_POINT('',#585);
#182=VERTEX_POINT('',#589);
#183=VERTEX_POINT('',#591);
#184=VERTEX_POINT('',#595);
#185=VERTEX_POINT('',#597);
#186=VERTEX_POINT('',#607);
#187=VERTEX_POINT('',#608);
#188=VERTEX_POINT('',#610);
#189=VERTEX_POINT('',#612);
#190=VERTEX_POINT('',#616);
#191=VERTEX_POINT('',#618);
#192=VERTEX_POINT('',#622);
#193=VERTEX_POINT('',#624);
#194=VERTEX_POINT('',#628);
#195=VERTEX_POINT('',#630);
#196=VERTEX_POINT('',#634);
#197=VERTEX_POINT('',#636);
#198=LINE('',#540,#242);
#199=LINE('',#543,#243);
#200=LINE('',#545,#244);
#201=LINE('',#547,#245);
#202=LINE('',#549,#246);
#203=LINE('',#551,#247);
#204=LINE('',#553,#248);
#205=LINE('',#555,#249);
#206=LINE('',#557,#250);
#207=LINE('',#559,#251);
#208=LINE('',#561,#252);
#209=LINE('',#562,#253);
#210=LINE('',#567,#254);
#211=LINE('',#570,#255);
#212=LINE('',#572,#256);
#213=LINE('',#574,#257);
#214=LINE('',#576,#258);
#215=LINE('',#578,#259);
#216=LINE('',#580,#260);
#217=LINE('',#584,#261);
#218=LINE('',#588,#262);
#219=LINE('',#590,#263);
#220=LINE('',#592,#264);
#221=LINE('',#594,#265);
#222=LINE('',#596,#266);
#223=LINE('',#598,#267);
#224=LINE('',#600,#268);
#225=LINE('',#601,#269);
#226=LINE('',#606,#270);
#227=LINE('',#609,#271);
#228=LINE('',#611,#272);
#229=LINE('',#613,#273);
#230=LINE('',#615,#274);
#231=LINE('',#617,#275);
#232=LINE('',#619,#276);
#233=LINE('',#621,#277);
#234=LINE('',#623,#278);
#235=LINE('',#625,#279);
#236=LINE('',#627,#280);
#237=LINE('',#629,#281);
#238=LINE('',#631,#282);
#239=LINE('',#635,#283);
#240=LINE('',#639,#284);
#241=LINE('',#640,#285);
#242=VECTOR('',#440,1.);
#243=VECTOR('',#441,1.);
#244=VECTOR('',#442,1.);
#245=VECTOR('',#443,1.);
#246=VECTOR('',#446,1.);
#247=VECTOR('',#447,1.);
#248=VECTOR('',#448,1.);
#249=VECTOR('',#451,1.);
#250=VECTOR('',#452,1.);
#251=VECTOR('',#453,1.);
#252=VECTOR('',#456,1.);
#253=VECTOR('',#457,1.);
#254=VECTOR('',#466,1.);
#255=VECTOR('',#467,1.);
#256=VECTOR('',#468,1.);
#257=VECTOR('',#469,1.);
#258=VECTOR('',#472,1.);
#259=VECTOR('',#473,1.);
#260=VECTOR('',#474,1.);
#261=VECTOR('',#479,1.);
#262=VECTOR('',#484,1.);
#263=VECTOR('',#485,1.);
#264=VECTOR('',#486,1.);
#265=VECTOR('',#489,1.);
#266=VECTOR('',#490,1.);
#267=VECTOR('',#491,1.);
#268=VECTOR('',#494,1.);
#269=VECTOR('',#495,1.);
#270=VECTOR('',#504,1.);
#271=VECTOR('',#505,1.);
#272=VECTOR('',#506,1.);
#273=VECTOR('',#507,1.);
#274=VECTOR('',#510,1.);
#275=VECTOR('',#511,1.);
#276=VECTOR('',#512,1.);
#277=VECTOR('',#515,1.);
#278=VECTOR('',#516,1.);
#279=VECTOR('',#517,1.);
#280=VECTOR('',#520,1.);
#281=VECTOR('',#521,1.);
#282=VECTOR('',#522,1.);
#283=VECTOR('',#527,1.);
#284=VECTOR('',#532,1.);
#285=VECTOR('',#533,1.);
#286=EDGE_LOOP('',(#22,#23,#24,#25));
#287=EDGE_LOOP('',(#26,#27,#28,#29));
#288=EDGE_LOOP('',(#30,#31,#32,#33));
#289=EDGE_LOOP('',(#34,#35,#36,#37));
#290=EDGE_LOOP('',(#38,#39,#40,#41));
#291=EDGE_LOOP('',(#42,#43,#44,#45));
#292=EDGE_LOOP('',(#46,#47,#48,#49));
#293=EDGE_LOOP('',(#50,#51,#52,#53));
#294=EDGE_LOOP('',(#54,#55,#56,#57));
#295=EDGE_LOOP('',(#58,#59,#60,#61));
#296=EDGE_LOOP('',(#62,#63,#64,#65));
#297=EDGE_LOOP('',(#66,#67,#68,#69));
#298=EDGE_LOOP('',(#70,#71,#72,#73,#74,#75));
#299=EDGE_LOOP('',(#76,#77,#78,#79,#80,#81));
#300=EDGE_LOOP('',(#82,#83,#84,#85));
#301=EDGE_LOOP('',(#86,#87,#88,#89));
#302=EDGE_LOOP('',(#90,#91,#92,#93));
#303=EDGE_LOOP('',(#94,#95,#96,#97));
#304=EDGE_LOOP('',(#98,#99,#100,#101));
#305=EDGE_LOOP('',(#102,#103,#104,#105));
#306=EDGE_LOOP('',(#106,#107,#108,#109,#110,#111));
#307=EDGE_LOOP('',(#112,#113,#114,#115,#116,#117));
#308=FACE_BOUND('',#286,.T.);
#309=FACE_BOUND('',#287,.T.);
#310=FACE_BOUND('',#288,.T.);
#311=FACE_BOUND('',#289,.T.);
#312=FACE_BOUND('',#290,.T.);
#313=FACE_BOUND('',#291,.T.);
#314=FACE_BOUND('',#292,.T.);
#315=FACE_BOUND('',#293,.T.);
#316=FACE_BOUND('',#294,.T.);
#317=FACE_BOUND('',#295,.T.);
#318=FACE_BOUND('',#296,.T.);
#319=FACE_BOUND('',#297,.T.);
#320=FACE_BOUND('',#298,.T.);
#321=FACE_BOUND('',#299,.T.);
#322=FACE_BOUND('',#300,.T.);
#323=FACE_BOUND('',#301,.T.);
#324=FACE_BOUND('',#302,.T.);
#325=FACE_BOUND('',#303,.T.);
#326=FACE_BOUND('',#304,.T.);
#327=FACE_BOUND('',#305,.T.);
#328=FACE_BOUND('',#306,.T.);
#329=FACE_BOUND('',#307,.T.);
#330=PLANE('',#408);
#331=PLANE('',#409);
#332=PLANE('',#410);
#333=PLANE('',#411);
#334=PLANE('',#412);
#335=PLANE('',#413);
#336=PLANE('',#415);
#337=PLANE('',#416);
#338=PLANE('',#420);
#339=PLANE('',#421);
#340=PLANE('',#422);
#341=PLANE('',#423);
#342=PLANE('',#424);
#343=PLANE('',#426);
#344=PLANE('',#427);
#345=PLANE('',#428);
#346=PLANE('',#429);
#347=PLANE('',#433);
#348=PLANE('',#434);
#349=PLANE('',#435);
#350=ADVANCED_FACE('',(#308),#330,.T.);
#351=ADVANCED_FACE('',(#309),#331,.F.);
#352=ADVANCED_FACE('',(#310),#332,.F.);
#353=ADVANCED_FACE('',(#311),#333,.T.);
#354=ADVANCED_FACE('',(#312),#334,.T.);
#355=ADVANCED_FACE('',(#313),#335,.F.);
#356=ADVANCED_FACE('',(#314),#336,.T.);
#357=ADVANCED_FACE('',(#315),#337,.T.);
#358=ADVANCED_FACE('',(#316),#14,.F.);
#359=ADVANCED_FACE('',(#317),#338,.T.);
#360=ADVANCED_FACE('',(#318),#339,.T.);
#361=ADVANCED_FACE('',(#319),#340,.T.);
#362=ADVANCED_FACE('',(#320),#341,.T.);
#363=ADVANCED_FACE('',(#321),#342,.F.);
#364=ADVANCED_FACE('',(#322),#343,.F.);
#365=ADVANCED_FACE('',(#323),#344,.F.);
#366=ADVANCED_FACE('',(#324),#345,.F.);
#367=ADVANCED_FACE('',(#325),#346,.F.);
#368=ADVANCED_FACE('',(#326),#15,.F.);
#369=ADVANCED_FACE('',(#327),#347,.F.);
#370=ADVANCED_FACE('',(#328),#348,.T.);
#371=ADVANCED_FACE('',(#329),#349,.F.);
#372=CLOSED_SHELL('',(#350,#351,#352,#353,#354,#355));
#373=CLOSED_SHELL('',(#356,#357,#358,#359,#360,#361,#362,#363));
#374=CLOSED_SHELL('',(#364,#365,#366,#367,#368,#369,#370,#371));
#375=STYLED_ITEM('',(#378),#398);
#376=STYLED_ITEM('',(#379),#399);
#377=STYLED_ITEM('',(#380),#400);
#378=PRESENTATION_STYLE_ASSIGNMENT((#381));
#379=PRESENTATION_STYLE_ASSIGNMENT((#382));
#380=PRESENTATION_STYLE_ASSIGNMENT((#383));
#381=SURFACE_STYLE_USAGE(.BOTH.,#384);
#382=SURFACE_STYLE_USAGE(.BOTH.,#385);
#383=SURFACE_STYLE_USAGE(.BOTH.,#386);
#384=SURFACE_SIDE_STYLE('',(#387));
#385=SURFACE_SIDE_STYLE('',(#388));
#386=SURFACE_SIDE_STYLE('',(#389));
#387=SURFACE_STYLE_FILL_AREA(#390);
#388=SURFACE_STYLE_FILL_AREA(#391);
#389=SURFACE_STYLE_FILL_AREA(#392);
#390=FILL_AREA_STYLE('',(#393));
#391=FILL_AREA_STYLE('',(#394));
#392=FILL_AREA_STYLE('',(#395));
#393=FILL_AREA_STYLE_COLOUR('',#396);
#394=FILL_AREA_STYLE_COLOUR('',#397);
#395=FILL_AREA_STYLE_COLOUR('',#397);
#396=COLOUR_RGB('',0.301960784313725,0.301960784313725,0.301960784313725);
#397=COLOUR_RGB('',0.811764705882353,0.858823529411765,0.898039215686275);
#398=MANIFOLD_SOLID_BREP('Part 3',#372);
#399=MANIFOLD_SOLID_BREP('Part 1',#373);
#400=MANIFOLD_SOLID_BREP('Part 2',#374);
#401=SHAPE_DEFINITION_REPRESENTATION(#661,#404);
#402=SHAPE_DEFINITION_REPRESENTATION(#662,#405);
#403=SHAPE_DEFINITION_REPRESENTATION(#663,#406);
#404=SHAPE_REPRESENTATION('Part 3',(#407),#646);
#405=SHAPE_REPRESENTATION('Part 1',(#414),#647);
#406=SHAPE_REPRESENTATION('Part 2',(#425),#648);
#407=AXIS2_PLACEMENT_3D('',#538,#436,#437);
#408=AXIS2_PLACEMENT_3D('',#539,#438,#439);
#409=AXIS2_PLACEMENT_3D('',#548,#444,#445);
#410=AXIS2_PLACEMENT_3D('',#554,#449,#450);
#411=AXIS2_PLACEMENT_3D('',#560,#454,#455);
#412=AXIS2_PLACEMENT_3D('',#563,#458,#459);
#413=AXIS2_PLACEMENT_3D('',#564,#460,#461);
#414=AXIS2_PLACEMENT_3D('',#565,#462,#463);
#415=AXIS2_PLACEMENT_3D('',#566,#464,#465);
#416=AXIS2_PLACEMENT_3D('',#575,#470,#471);
#417=AXIS2_PLACEMENT_3D('',#581,#475,#476);
#418=AXIS2_PLACEMENT_3D('',#582,#477,#478);
#419=AXIS2_PLACEMENT_3D('',#586,#480,#481);
#420=AXIS2_PLACEMENT_3D('',#587,#482,#483);
#421=AXIS2_PLACEMENT_3D('',#593,#487,#488);
#422=AXIS2_PLACEMENT_3D('',#599,#492,#493);
#423=AXIS2_PLACEMENT_3D('',#602,#496,#497);
#424=AXIS2_PLACEMENT_3D('',#603,#498,#499);
#425=AXIS2_PLACEMENT_3D('',#604,#500,#501);
#426=AXIS2_PLACEMENT_3D('',#605,#502,#503);
#427=AXIS2_PLACEMENT_3D('',#614,#508,#509);
#428=AXIS2_PLACEMENT_3D('',#620,#513,#514);
#429=AXIS2_PLACEMENT_3D('',#626,#518,#519);
#430=AXIS2_PLACEMENT_3D('',#632,#523,#524);
#431=AXIS2_PLACEMENT_3D('',#633,#525,#526);
#432=AXIS2_PLACEMENT_3D('',#637,#528,#529);
#433=AXIS2_PLACEMENT_3D('',#638,#530,#531);
#434=AXIS2_PLACEMENT_3D('',#641,#534,#535);
#435=AXIS2_PLACEMENT_3D('',#642,#536,#537);
#436=DIRECTION('',(0.,0.,1.));
#437=DIRECTION('',(1.,0.,0.));
#438=DIRECTION('',(0.,1.,0.));
#439=DIRECTION('',(0.,0.,1.));
#440=DIRECTION('',(1.,0.,0.));
#441=DIRECTION('',(0.,0.,-1.));
#442=DIRECTION('',(1.,0.,0.));
#443=DIRECTION('',(0.,0.,-1.));
#444=DIRECTION('',(1.,0.,0.));
#445=DIRECTION('',(0.,0.,-1.));
#446=DIRECTION('',(0.,-1.,0.));
#447=DIRECTION('',(0.,0.,-1.));
#448=DIRECTION('',(0.,-1.,0.));
#449=DIRECTION('',(0.,1.,0.));
#450=DIRECTION('',(0.,0.,1.));
#451=DIRECTION('',(1.,0.,0.));
#452=DIRECTION('',(0.,0.,-1.));
#453=DIRECTION('',(1.,0.,0.));
#454=DIRECTION('',(1.,0.,0.));
#455=DIRECTION('',(0.,0.,-1.));
#456=DIRECTION('',(0.,-1.,0.));
#457=DIRECTION('',(0.,-1.,0.));
#458=DIRECTION('',(0.,0.,1.));
#459=DIRECTION('',(1.,0.,0.));
#460=DIRECTION('',(0.,0.,1.));
#461=DIRECTION('',(1.,0.,0.));
#462=DIRECTION('',(0.,0.,1.));
#463=DIRECTION('',(1.,0.,0.));
#464=DIRECTION('',(-5.78241158658935E-16,1.,0.));
#465=DIRECTION('',(-1.,-5.78241158658935E-16,0.));
#466=DIRECTION('',(1.,5.78241158658935E-16,0.));
#467=DIRECTION('',(0.,0.,-1.));
#468=DIRECTION('',(1.,5.78241158658935E-16,0.));
#469=DIRECTION('',(0.,0.,-1.));
#470=DIRECTION('',(-1.,0.,0.));
#471=DIRECTION('',(0.,0.,1.));
#472=DIRECTION('',(0.,1.,0.));
#473=DIRECTION('',(0.,0.,-1.));
#474=DIRECTION('',(0.,1.,0.));
#475=DIRECTION('',(0.,0.,-1.));
#476=DIRECTION('',(-1.,0.,0.));
#477=DIRECTION('',(0.,0.,1.));
#478=DIRECTION('',(1.,0.,0.));
#479=DIRECTION('',(0.,0.,-1.));
#480=DIRECTION('',(0.,0.,1.));
#481=DIRECTION('',(1.,0.,0.));
#482=DIRECTION('',(-1.,-7.1095224425279E-16,0.));
#483=DIRECTION('',(7.1095224425279E-16,-1.,0.));
#484=DIRECTION('',(-7.1095224425279E-16,1.,0.));
#485=DIRECTION('',(0.,0.,-1.));
#486=DIRECTION('',(-7.1095224425279E-16,1.,0.));
#487=DIRECTION('',(-2.89120579329468E-16,-1.,0.));
#488=DIRECTION('',(1.,-2.89120579329468E-16,0.));
#489=DIRECTION('',(-1.,2.89120579329468E-16,0.));
#490=DIRECTION('',(0.,0.,-1.));
#491=DIRECTION('',(-1.,2.89120579329468E-16,0.));
#492=DIRECTION('',(1.,0.,0.));
#493=DIRECTION('',(0.,0.,-1.));
#494=DIRECTION('',(0.,-1.,0.));
#495=DIRECTION('',(0.,-1.,0.));
#496=DIRECTION('',(0.,0.,1.));
#497=DIRECTION('',(1.,0.,0.));
#498=DIRECTION('',(0.,0.,1.));
#499=DIRECTION('',(1.,0.,0.));
#500=DIRECTION('',(0.,0.,1.));
#501=DIRECTION('',(1.,0.,0.));
#502=DIRECTION('',(-5.78241158658935E-16,-1.,0.));
#503=DIRECTION('',(1.,-5.78241158658935E-16,0.));
#504=DIRECTION('',(-1.,5.78241158658935E-16,0.));
#505=DIRECTION('',(0.,0.,-1.));
#506=DIRECTION('',(-1.,5.78241158658935E-16,0.));
#507=DIRECTION('',(0.,0.,-1.));
#508=DIRECTION('',(1.,0.,0.));
#509=DIRECTION('',(0.,0.,-1.));
#510=DIRECTION('',(0.,-1.,0.));
#511=DIRECTION('',(0.,0.,-1.));
#512=DIRECTION('',(0.,-1.,0.));
#513=DIRECTION('',(-2.89120579329468E-16,1.,0.));
#514=DIRECTION('',(-1.,-2.89120579329468E-16,0.));
#515=DIRECTION('',(1.,2.89120579329468E-16,0.));
#516=DIRECTION('',(0.,0.,-1.));
#517=DIRECTION('',(1.,2.89120579329468E-16,0.));
#518=DIRECTION('',(-1.,7.1095224425279E-16,0.));
#519=DIRECTION('',(-7.1095224425279E-16,-1.,0.));
#520=DIRECTION('',(7.1095224425279E-16,1.,0.));
#521=DIRECTION('',(0.,0.,-1.));
#522=DIRECTION('',(7.1095224425279E-16,1.,0.));
#523=DIRECTION('',(0.,0.,-1.));
#524=DIRECTION('',(-1.,0.,0.));
#525=DIRECTION('',(0.,0.,-1.));
#526=DIRECTION('',(1.,0.,0.));
#527=DIRECTION('',(0.,0.,-1.));
#528=DIRECTION('',(0.,0.,-1.));
#529=DIRECTION('',(1.,0.,0.));
#530=DIRECTION('',(-1.,0.,0.));
#531=DIRECTION('',(0.,0.,1.));
#532=DIRECTION('',(0.,1.,0.));
#533=DIRECTION('',(0.,1.,0.));
#534=DIRECTION('',(0.,0.,1.));
#535=DIRECTION('',(1.,0.,0.));
#536=DIRECTION('',(0.,0.,1.));
#537=DIRECTION('',(1.,0.,0.));
#538=CARTESIAN_POINT('',(0.,0.,0.));
#539=CARTESIAN_POINT('',(0.,0.00162,0.001));
#540=CARTESIAN_POINT('',(0.,0.00162,0.));
#541=CARTESIAN_POINT('',(-0.001525,0.00162,0.));
#542=CARTESIAN_POINT('',(0.001525,0.00162,0.));
#543=CARTESIAN_POINT('',(-0.001525,0.00162,0.001));
#544=CARTESIAN_POINT('',(-0.001525,0.00162,0.001));
#545=CARTESIAN_POINT('',(0.,0.00162,0.001));
#546=CARTESIAN_POINT('',(0.001525,0.00162,0.001));
#547=CARTESIAN_POINT('',(0.001525,0.00162,0.001));
#548=CARTESIAN_POINT('',(-0.001525,-4.33680868994202E-19,0.001));
#549=CARTESIAN_POINT('',(-0.001525,-4.33680868994202E-19,0.));
#550=CARTESIAN_POINT('',(-0.001525,-0.00162,0.));
#551=CARTESIAN_POINT('',(-0.001525,-0.00162,0.001));
#552=CARTESIAN_POINT('',(-0.001525,-0.00162,0.001));
#553=CARTESIAN_POINT('',(-0.001525,-4.33680868994202E-19,0.001));
#554=CARTESIAN_POINT('',(0.,-0.00162,0.001));
#555=CARTESIAN_POINT('',(0.,-0.00162,0.));
#556=CARTESIAN_POINT('',(0.001525,-0.00162,0.));
#557=CARTESIAN_POINT('',(0.001525,-0.00162,0.001));
#558=CARTESIAN_POINT('',(0.001525,-0.00162,0.001));
#559=CARTESIAN_POINT('',(0.,-0.00162,0.001));
#560=CARTESIAN_POINT('',(0.001525,-4.33680868994202E-19,0.001));
#561=CARTESIAN_POINT('',(0.001525,-4.33680868994202E-19,0.));
#562=CARTESIAN_POINT('',(0.001525,-4.33680868994202E-19,0.001));
#563=CARTESIAN_POINT('',(0.,-8.67361737988404E-19,0.001));
#564=CARTESIAN_POINT('',(0.,-8.67361737988404E-19,0.));
#565=CARTESIAN_POINT('',(0.,0.,0.));
#566=CARTESIAN_POINT('',(-0.0019,0.00162,0.001));
#567=CARTESIAN_POINT('',(-0.0019,0.00162,0.));
#568=CARTESIAN_POINT('',(-0.002275,0.00162,0.));
#569=CARTESIAN_POINT('',(-0.001525,0.00162,0.));
#570=CARTESIAN_POINT('',(-0.002275,0.00162,0.001));
#571=CARTESIAN_POINT('',(-0.002275,0.00162,0.001));
#572=CARTESIAN_POINT('',(-0.0019,0.00162,0.001));
#573=CARTESIAN_POINT('',(-0.001525,0.00162,0.001));
#574=CARTESIAN_POINT('',(-0.001525,0.00162,0.001));
#575=CARTESIAN_POINT('',(-0.002275,0.00101,0.001));
#576=CARTESIAN_POINT('',(-0.002275,0.00101,0.));
#577=CARTESIAN_POINT('',(-0.002275,0.0004,0.));
#578=CARTESIAN_POINT('',(-0.002275,0.0004,0.001));
#579=CARTESIAN_POINT('',(-0.002275,0.0004,0.001));
#580=CARTESIAN_POINT('',(-0.002275,0.00101,0.001));
#581=CARTESIAN_POINT('',(-0.002275,-8.67361737988404E-19,0.001));
#582=CARTESIAN_POINT('',(-0.002275,-8.67361737988404E-19,0.));
#583=CARTESIAN_POINT('',(-0.002275,-0.0004,0.));
#584=CARTESIAN_POINT('',(-0.002275,-0.0004,0.001));
#585=CARTESIAN_POINT('',(-0.002275,-0.0004,0.001));
#586=CARTESIAN_POINT('',(-0.002275,-8.67361737988404E-19,0.001));
#587=CARTESIAN_POINT('',(-0.002275,-0.00101,0.001));
#588=CARTESIAN_POINT('',(-0.002275,-0.00101,0.));
#589=CARTESIAN_POINT('',(-0.002275,-0.00162,0.));
#590=CARTESIAN_POINT('',(-0.002275,-0.00162,0.001));
#591=CARTESIAN_POINT('',(-0.002275,-0.00162,0.001));
#592=CARTESIAN_POINT('',(-0.002275,-0.00101,0.001));
#593=CARTESIAN_POINT('',(-0.0019,-0.00162,0.001));
#594=CARTESIAN_POINT('',(-0.0019,-0.00162,0.));
#595=CARTESIAN_POINT('',(-0.001525,-0.00162,0.));
#596=CARTESIAN_POINT('',(-0.001525,-0.00162,0.001));
#597=CARTESIAN_POINT('',(-0.001525,-0.00162,0.001));
#598=CARTESIAN_POINT('',(-0.0019,-0.00162,0.001));
#599=CARTESIAN_POINT('',(-0.001525,-4.33680868994202E-19,0.001));
#600=CARTESIAN_POINT('',(-0.001525,-4.33680868994202E-19,0.));
#601=CARTESIAN_POINT('',(-0.001525,-4.33680868994202E-19,0.001));
#602=CARTESIAN_POINT('',(0.,-8.67361737988404E-19,0.001));
#603=CARTESIAN_POINT('',(0.,-8.67361737988404E-19,0.));
#604=CARTESIAN_POINT('',(0.,0.,0.));
#605=CARTESIAN_POINT('',(0.0019,0.00162,0.001));
#606=CARTESIAN_POINT('',(0.0019,0.00162,0.));
#607=CARTESIAN_POINT('',(0.002275,0.00162,0.));
#608=CARTESIAN_POINT('',(0.001525,0.00162,0.));
#609=CARTESIAN_POINT('',(0.001525,0.00162,0.001));
#610=CARTESIAN_POINT('',(0.001525,0.00162,0.001));
#611=CARTESIAN_POINT('',(0.0019,0.00162,0.001));
#612=CARTESIAN_POINT('',(0.002275,0.00162,0.001));
#613=CARTESIAN_POINT('',(0.002275,0.00162,0.001));
#614=CARTESIAN_POINT('',(0.001525,-4.33680868994202E-19,0.001));
#615=CARTESIAN_POINT('',(0.001525,-4.33680868994202E-19,0.));
#616=CARTESIAN_POINT('',(0.001525,-0.00162,0.));
#617=CARTESIAN_POINT('',(0.001525,-0.00162,0.001));
#618=CARTESIAN_POINT('',(0.001525,-0.00162,0.001));
#619=CARTESIAN_POINT('',(0.001525,-4.33680868994202E-19,0.001));
#620=CARTESIAN_POINT('',(0.0019,-0.00162,0.001));
#621=CARTESIAN_POINT('',(0.0019,-0.00162,0.));
#622=CARTESIAN_POINT('',(0.002275,-0.00162,0.));
#623=CARTESIAN_POINT('',(0.002275,-0.00162,0.001));
#624=CARTESIAN_POINT('',(0.002275,-0.00162,0.001));
#625=CARTESIAN_POINT('',(0.0019,-0.00162,0.001));
#626=CARTESIAN_POINT('',(0.002275,-0.00101,0.001));
#627=CARTESIAN_POINT('',(0.002275,-0.00101,0.));
#628=CARTESIAN_POINT('',(0.002275,-0.0004,0.));
#629=CARTESIAN_POINT('',(0.002275,-0.0004,0.001));
#630=CARTESIAN_POINT('',(0.002275,-0.0004,0.001));
#631=CARTESIAN_POINT('',(0.002275,-0.00101,0.001));
#632=CARTESIAN_POINT('',(0.002275,-8.67361737988404E-19,0.001));
#633=CARTESIAN_POINT('',(0.002275,-8.67361737988404E-19,0.));
#634=CARTESIAN_POINT('',(0.002275,0.0004,0.));
#635=CARTESIAN_POINT('',(0.002275,0.0004,0.001));
#636=CARTESIAN_POINT('',(0.002275,0.0004,0.001));
#637=CARTESIAN_POINT('',(0.002275,-8.67361737988404E-19,0.001));
#638=CARTESIAN_POINT('',(0.002275,0.00101,0.001));
#639=CARTESIAN_POINT('',(0.002275,0.00101,0.));
#640=CARTESIAN_POINT('',(0.002275,0.00101,0.001));
#641=CARTESIAN_POINT('',(0.,-8.67361737988404E-19,0.001));
#642=CARTESIAN_POINT('',(0.,-8.67361737988404E-19,0.));
#643=MECHANICAL_DESIGN_GEOMETRIC_PRESENTATION_REPRESENTATION('',(#375),
#646);
#644=MECHANICAL_DESIGN_GEOMETRIC_PRESENTATION_REPRESENTATION('',(#376),
#647);
#645=MECHANICAL_DESIGN_GEOMETRIC_PRESENTATION_REPRESENTATION('',(#377),
#648);
#646=(
GEOMETRIC_REPRESENTATION_CONTEXT(3)
GLOBAL_UNCERTAINTY_ASSIGNED_CONTEXT((#649))
GLOBAL_UNIT_ASSIGNED_CONTEXT((#658,#655,#652))
REPRESENTATION_CONTEXT('Part 3','TOP_LEVEL_ASSEMBLY_PART')
);
#647=(
GEOMETRIC_REPRESENTATION_CONTEXT(3)
GLOBAL_UNCERTAINTY_ASSIGNED_CONTEXT((#650))
GLOBAL_UNIT_ASSIGNED_CONTEXT((#659,#656,#653))
REPRESENTATION_CONTEXT('Part 1','TOP_LEVEL_ASSEMBLY_PART')
);
#648=(
GEOMETRIC_REPRESENTATION_CONTEXT(3)
GLOBAL_UNCERTAINTY_ASSIGNED_CONTEXT((#651))
GLOBAL_UNIT_ASSIGNED_CONTEXT((#660,#657,#654))
REPRESENTATION_CONTEXT('Part 2','TOP_LEVEL_ASSEMBLY_PART')
);
#649=UNCERTAINTY_MEASURE_WITH_UNIT(LENGTH_MEASURE(1.E-8),#658,
'DISTANCE_ACCURACY_VALUE','Maximum Tolerance applied to model');
#650=UNCERTAINTY_MEASURE_WITH_UNIT(LENGTH_MEASURE(1.E-8),#659,
'DISTANCE_ACCURACY_VALUE','Maximum Tolerance applied to model');
#651=UNCERTAINTY_MEASURE_WITH_UNIT(LENGTH_MEASURE(1.E-8),#660,
'DISTANCE_ACCURACY_VALUE','Maximum Tolerance applied to model');
#652=(
NAMED_UNIT(*)
SI_UNIT($,.STERADIAN.)
SOLID_ANGLE_UNIT()
);
#653=(
NAMED_UNIT(*)
SI_UNIT($,.STERADIAN.)
SOLID_ANGLE_UNIT()
);
#654=(
NAMED_UNIT(*)
SI_UNIT($,.STERADIAN.)
SOLID_ANGLE_UNIT()
);
#655=(
NAMED_UNIT(*)
PLANE_ANGLE_UNIT()
SI_UNIT($,.RADIAN.)
);
#656=(
NAMED_UNIT(*)
PLANE_ANGLE_UNIT()
SI_UNIT($,.RADIAN.)
);
#657=(
NAMED_UNIT(*)
PLANE_ANGLE_UNIT()
SI_UNIT($,.RADIAN.)
);
#658=(
LENGTH_UNIT()
NAMED_UNIT(*)
SI_UNIT($,.METRE.)
);
#659=(
LENGTH_UNIT()
NAMED_UNIT(*)
SI_UNIT($,.METRE.)
);
#660=(
LENGTH_UNIT()
NAMED_UNIT(*)
SI_UNIT($,.METRE.)
);
#661=PRODUCT_DEFINITION_SHAPE('','',#664);
#662=PRODUCT_DEFINITION_SHAPE('','',#665);
#663=PRODUCT_DEFINITION_SHAPE('','',#666);
#664=PRODUCT_DEFINITION('','',#670,#667);
#665=PRODUCT_DEFINITION('','',#671,#668);
#666=PRODUCT_DEFINITION('','',#672,#669);
#667=PRODUCT_DEFINITION_CONTEXT('',#688,'design');
#668=PRODUCT_DEFINITION_CONTEXT('',#689,'design');
#669=PRODUCT_DEFINITION_CONTEXT('',#690,'design');
#670=PRODUCT_DEFINITION_FORMATION_WITH_SPECIFIED_SOURCE('','',#676,
 .NOT_KNOWN.);
#671=PRODUCT_DEFINITION_FORMATION_WITH_SPECIFIED_SOURCE('','',#677,
 .NOT_KNOWN.);
#672=PRODUCT_DEFINITION_FORMATION_WITH_SPECIFIED_SOURCE('','',#678,
 .NOT_KNOWN.);
#673=PRODUCT_RELATED_PRODUCT_CATEGORY('','',(#676));
#674=PRODUCT_RELATED_PRODUCT_CATEGORY('','',(#677));
#675=PRODUCT_RELATED_PRODUCT_CATEGORY('','',(#678));
#676=PRODUCT('Part 3','Part 3','Part 3',(#682));
#677=PRODUCT('Part 1','Part 1','Part 1',(#683));
#678=PRODUCT('Part 2','Part 2','Part 2',(#684));
#679=PRODUCT_CATEGORY('','');
#680=PRODUCT_CATEGORY('','');
#681=PRODUCT_CATEGORY('','');
#682=PRODUCT_CONTEXT('',#688,'mechanical');
#683=PRODUCT_CONTEXT('',#689,'mechanical');
#684=PRODUCT_CONTEXT('',#690,'mechanical');
#685=APPLICATION_PROTOCOL_DEFINITION('international standard',
'ap242_managed_model_based_3d_engineering',2020,#688);
#686=APPLICATION_PROTOCOL_DEFINITION('international standard',
'ap242_managed_model_based_3d_engineering',2020,#689);
#687=APPLICATION_PROTOCOL_DEFINITION('international standard',
'ap242_managed_model_based_3d_engineering',2020,#690);
#688=APPLICATION_CONTEXT('managed model based 3d engineering');
#689=APPLICATION_CONTEXT('managed model based 3d engineering');
#690=APPLICATION_CONTEXT('managed model based 3d engineering');
ENDSEC;
END-ISO-10303-21;
